<svg width="821" height="821" viewBox="0 0 821 821" fill="none" xmlns="http://www.w3.org/2000/svg"><path d="M283.416 641.146C296.144 641.146 306.463 630.827 306.463 618.098C306.463 605.368 296.144 595.049 283.416 595.049C270.688 595.049 260.37 605.368 260.37 618.098C260.37 630.827 270.688 641.146 283.416 641.146Z" fill="white"/><path d="M649.523 641.146C662.251 641.146 672.569 630.827 672.569 618.098C672.569 605.368 662.251 595.049 649.523 595.049C636.795 595.049 626.476 605.368 626.476 618.098C626.476 630.827 636.795 641.146 649.523 641.146Z" fill="white"/><path fill-rule="evenodd" clip-rule="evenodd" d="M153.699 170.951H252.468V217.049H153.699C136.243 217.049 122.093 231.201 122.093 248.659V563.439C122.093 580.897 136.243 595.049 153.699 595.049H282.758V641.146H153.699C110.787 641.146 76 606.356 76 563.439V248.659C76 205.742 110.787 170.951 153.699 170.951ZM648.864 641.146H667.301C710.213 641.146 745 606.356 745 563.439V248.659C745 205.742 710.213 170.951 667.301 170.951H567.215V217.049H667.301C684.757 217.049 698.907 231.201 698.907 248.659V563.439C698.907 580.897 684.757 595.049 667.301 595.049H648.864V641.146Z" fill="white"/><path fill-rule="evenodd" clip-rule="evenodd" d="M510.587 159.098H310.413C303.867 159.098 298.561 164.405 298.561 170.951V192.024H252.469V170.951C252.469 138.946 278.411 113 310.413 113H510.587C542.589 113 568.532 138.946 568.532 170.951V192.024H522.439V170.951C522.439 164.405 517.133 159.098 510.587 159.098Z" fill="white"/><path d="M275.515 170.951H246.542C233.814 170.951 223.496 181.271 223.496 194C223.496 206.729 233.814 217.049 246.542 217.049H275.515C288.243 217.049 298.561 206.729 298.561 194C298.561 181.271 288.243 170.951 275.515 170.951Z" fill="white"/><path d="M574.458 170.951H545.485C532.757 170.951 522.439 181.271 522.439 194C522.439 206.729 532.757 217.049 545.485 217.049H574.458C587.186 217.049 597.504 206.729 597.504 194C597.504 181.271 587.186 170.951 574.458 170.951Z" fill="white"/><path d="M468.241 512.697L457.394 520.293C447.266 527.386 444.804 541.347 451.896 551.477L547.071 687.416C554.163 697.546 568.123 700.007 578.252 692.915L589.099 685.318C599.227 678.226 601.689 664.264 594.597 654.135L499.421 518.196C492.33 508.066 478.37 505.604 468.241 512.697Z" fill="white"/><path d="M385.478 541.049C460.392 541.049 521.122 480.312 521.122 405.39C521.122 330.468 460.392 269.732 385.478 269.732C310.564 269.732 249.835 330.468 249.835 405.39C249.835 480.312 310.564 541.049 385.478 541.049Z" stroke="white" stroke-width="32"/><path d="M604.747 313.195C622.566 313.195 637.012 298.748 637.012 280.927C637.012 263.106 622.566 248.659 604.747 248.659C586.928 248.659 572.482 263.106 572.482 280.927C572.482 298.748 586.928 313.195 604.747 313.195Z" fill="white"/><path d="M303.17 442.268C311.534 442.268 318.315 435.487 318.315 427.122C318.315 418.757 311.534 411.976 303.17 411.976C294.806 411.976 288.026 418.757 288.026 427.122C288.026 435.487 294.806 442.268 303.17 442.268Z" fill="white"/><path d="M362.432 339.537C370.796 339.537 377.577 332.755 377.577 324.39C377.577 316.025 370.796 309.244 362.432 309.244C354.068 309.244 347.287 316.025 347.287 324.39C347.287 332.755 354.068 339.537 362.432 339.537Z" fill="white"/><path fill-rule="evenodd" clip-rule="evenodd" d="M359.81 309.252C314.047 321.886 282.09 365.475 285.788 414.61C286.265 420.94 287.312 427.09 288.876 433.016L317.874 424.134C316.933 420.322 316.296 416.381 315.992 412.336C313.427 378.241 335.34 347.954 366.893 338.736L359.81 309.252Z" fill="white"/></svg>