<svg width="508" height="451" viewBox="0 0 508 451" fill="none" xmlns="http://www.w3.org/2000/svg"><circle cx="157.5" cy="383.5" r="17.5" fill="black"/><circle cx="435.5" cy="383.5" r="17.5" fill="black"/><path fill-rule="evenodd" clip-rule="evenodd" d="M59 44H134V79H59C45.7452 79 35 89.7452 35 103V342C35 355.255 45.7452 366 59 366H157V401H59C26.4152 401 0 374.585 0 342V103C0 70.4152 26.4152 44 59 44ZM435 401H449C481.585 401 508 374.585 508 342V103C508 70.4152 481.585 44 449 44H373V79H449C462.255 79 473 89.7452 473 103V342C473 355.255 462.255 366 449 366H435V401Z" fill="black"/><path fill-rule="evenodd" clip-rule="evenodd" d="M330 35H178C173.029 35 169 39.0294 169 44V60H134V44C134 19.6995 153.699 0 178 0H330C354.301 0 374 19.6995 374 44V60H339V44C339 39.0294 334.971 35 330 35Z" fill="black"/><rect x="112" y="44" width="57" height="35" rx="17.5" fill="black"/><rect x="339" y="44" width="57" height="35" rx="17.5" fill="black"/><rect x="275.683" y="318.992" width="44.0553" height="160" rx="17" transform="rotate(-35 275.683 318.992)" fill="black"/><circle cx="235" cy="222" r="103" stroke="black" stroke-width="32"/><circle cx="401.5" cy="127.5" r="24.5" fill="black"/><circle cx="172.5" cy="238.5" r="11.5" fill="black"/><circle cx="217.5" cy="160.5" r="11.5" fill="black"/><path fill-rule="evenodd" clip-rule="evenodd" d="M215.509 149.006C180.759 158.599 156.493 191.694 159.301 229C159.663 233.806 160.458 238.476 161.646 242.975L183.665 236.231C182.951 233.337 182.467 230.345 182.236 227.274C180.288 201.387 196.928 178.391 220.887 171.392L215.509 149.006Z" fill="black"/></svg>